<svg width="25" height="22" viewBox="0 0 25 22" fill="none" xmlns="http://www.w3.org/2000/svg">
<path d="M2.34375 0.789062C1.0498 0.789062 0 1.94828 0 3.37709C0 4.19124 0.34668 4.95687 0.9375 5.44751L11.5625 14.2468C12.1191 14.7051 12.8809 14.7051 13.4375 14.2468L24.0625 5.44751C24.6533 4.95687 25 4.19124 25 3.37709C25 1.94828 23.9502 0.789062 22.6562 0.789062H2.34375ZM0 6.8278V18.0426C0 19.9459 1.40137 21.4933 3.125 21.4933H21.875C23.5986 21.4933 25 19.9459 25 18.0426V6.8278L14.375 15.6271C13.2617 16.5491 11.7383 16.5491 10.625 15.6271L0 6.8278Z" fill="white"/>
</svg>
