<svg width="25" height="26" viewBox="0 0 25 26" fill="none" xmlns="http://www.w3.org/2000/svg">
<path d="M5.86688 1.4107L5.86709 1.41065C6.55234 1.22608 7.26076 1.55342 7.55894 2.16862L7.59084 2.24412L9.54388 6.86539L9.54397 6.8656C9.78811 7.44258 9.62109 8.10983 9.12431 8.51025C9.1243 8.51025 9.1243 8.51026 9.12429 8.51026L6.71719 10.4502L6.40883 10.6987L6.58014 11.0558C8.25656 14.55 11.1248 17.3771 14.6659 19.0285L15.0154 19.1914L15.2618 18.895L17.2344 16.5217L17.2361 16.5196C17.6362 16.0328 18.324 15.8609 18.9203 16.1061L18.9205 16.1062L23.6078 18.0318L23.6088 18.0322C24.2855 18.3084 24.6389 19.0313 24.4487 19.7175L24.4486 19.7177L23.2772 23.9525C23.2771 23.9528 23.277 23.9531 23.2769 23.9535C23.1033 24.5722 22.5308 25.0073 21.874 25.0073C10.0639 25.0073 0.5 15.5679 0.5 3.94131C0.5 3.30655 0.933667 2.73944 1.57096 2.56582C1.57117 2.56576 1.57138 2.5657 1.57159 2.56565L5.86688 1.4107Z" fill="#FAFAFA" stroke="black"/>
</svg>
