<svg width="25" height="22" viewBox="0 0 25 22" fill="none" xmlns="http://www.w3.org/2000/svg">
<path d="M2.34375 0.788574C1.0498 0.788574 0 1.9478 0 3.3766C0 4.19075 0.34668 4.95638 0.9375 5.44702L11.5625 14.2463C12.1191 14.7046 12.8809 14.7046 13.4375 14.2463L24.0625 5.44702C24.6533 4.95638 25 4.19075 25 3.3766C25 1.9478 23.9502 0.788574 22.6562 0.788574H2.34375ZM0 6.82731V18.0421C0 19.9454 1.40137 21.4928 3.125 21.4928H21.875C23.5986 21.4928 25 19.9454 25 18.0421V6.82731L14.375 15.6266C13.2617 16.5486 11.7383 16.5486 10.625 15.6266L0 6.82731Z" fill="white"/>
</svg>
